<svg width="1440" height="377" viewBox="0 0 1440 377" fill="none" xmlns="http://www.w3.org/2000/svg">
<ellipse cx="0.500013" cy="3.04412" rx="3.04054" ry="3.04412" fill="#F5E6F1"/>
<ellipse cx="0.500013" cy="21.3088" rx="3.04054" ry="3.04412" fill="#F5E6F1"/>
<ellipse cx="0.500013" cy="39.5735" rx="3.04054" ry="3.04412" fill="#F5E6F1"/>
<ellipse cx="0.500013" cy="57.8382" rx="3.04054" ry="3.04412" fill="#F5E6F1"/>
<ellipse cx="0.500013" cy="76.103" rx="3.04054" ry="3.04412" fill="#F5E6F1"/>
<ellipse cx="0.500013" cy="94.3676" rx="3.04054" ry="3.04412" fill="#F5E6F1"/>
<ellipse cx="0.500013" cy="112.632" rx="3.04054" ry="3.04412" fill="#F5E6F1"/>
<ellipse cx="0.500013" cy="130.897" rx="3.04054" ry="3.04412" fill="#F5E6F1"/>
<ellipse cx="0.500013" cy="149.162" rx="3.04054" ry="3.04412" fill="#F5E6F1"/>
<ellipse cx="0.500013" cy="167.426" rx="3.04054" ry="3.04412" fill="#F5E6F1"/>
<ellipse cx="0.500013" cy="185.691" rx="3.04054" ry="3.04412" fill="#F5E6F1"/>
<ellipse cx="0.500013" cy="203.956" rx="3.04054" ry="3.04412" fill="#F5E6F1"/>
<ellipse cx="18.7432" cy="3.04412" rx="3.04054" ry="3.04412" fill="#F5E6F1"/>
<ellipse cx="36.9865" cy="3.04412" rx="3.04054" ry="3.04412" fill="#F5E6F1"/>
<ellipse cx="55.2297" cy="3.04412" rx="3.04054" ry="3.04412" fill="#F5E6F1"/>
<ellipse cx="73.473" cy="3.04412" rx="3.04054" ry="3.04412" fill="#F5E6F1"/>
<ellipse cx="91.7162" cy="3.04412" rx="3.04054" ry="3.04412" fill="#F5E6F1"/>
<ellipse cx="109.959" cy="3.04412" rx="3.04054" ry="3.04412" fill="#F5E6F1"/>
<ellipse cx="18.7432" cy="21.3088" rx="3.04054" ry="3.04412" fill="#F5E6F1"/>
<ellipse cx="36.9865" cy="21.3088" rx="3.04054" ry="3.04412" fill="#F5E6F1"/>
<ellipse cx="55.2297" cy="21.3088" rx="3.04054" ry="3.04412" fill="#F5E6F1"/>
<ellipse cx="73.473" cy="21.3088" rx="3.04054" ry="3.04412" fill="#F5E6F1"/>
<ellipse cx="91.7162" cy="21.3088" rx="3.04054" ry="3.04412" fill="#F5E6F1"/>
<ellipse cx="109.959" cy="21.3088" rx="3.04054" ry="3.04412" fill="#F5E6F1"/>
<ellipse cx="18.7432" cy="39.5735" rx="3.04054" ry="3.04412" fill="#F5E6F1"/>
<ellipse cx="36.9865" cy="39.5735" rx="3.04054" ry="3.04412" fill="#F5E6F1"/>
<ellipse cx="55.2297" cy="39.5735" rx="3.04054" ry="3.04412" fill="#F5E6F1"/>
<ellipse cx="73.473" cy="39.5735" rx="3.04054" ry="3.04412" fill="#F5E6F1"/>
<ellipse cx="91.7162" cy="39.5735" rx="3.04054" ry="3.04412" fill="#F5E6F1"/>
<ellipse cx="109.959" cy="39.5735" rx="3.04054" ry="3.04412" fill="#F5E6F1"/>
<ellipse cx="18.7432" cy="57.8382" rx="3.04054" ry="3.04412" fill="#F5E6F1"/>
<ellipse cx="36.9865" cy="57.8382" rx="3.04054" ry="3.04412" fill="#F5E6F1"/>
<ellipse cx="55.2297" cy="57.8382" rx="3.04054" ry="3.04412" fill="#F5E6F1"/>
<ellipse cx="73.473" cy="57.8382" rx="3.04054" ry="3.04412" fill="#F5E6F1"/>
<ellipse cx="91.7162" cy="57.8382" rx="3.04054" ry="3.04412" fill="#F5E6F1"/>
<ellipse cx="109.959" cy="57.8382" rx="3.04054" ry="3.04412" fill="#F5E6F1"/>
<ellipse cx="18.7432" cy="76.103" rx="3.04054" ry="3.04412" fill="#F5E6F1"/>
<ellipse cx="36.9865" cy="76.103" rx="3.04054" ry="3.04412" fill="#F5E6F1"/>
<ellipse cx="55.2297" cy="76.103" rx="3.04054" ry="3.04412" fill="#F5E6F1"/>
<ellipse cx="73.473" cy="76.103" rx="3.04054" ry="3.04412" fill="#F5E6F1"/>
<ellipse cx="91.7162" cy="76.103" rx="3.04054" ry="3.04412" fill="#F5E6F1"/>
<ellipse cx="109.959" cy="76.103" rx="3.04054" ry="3.04412" fill="#F5E6F1"/>
<ellipse cx="18.7432" cy="94.3676" rx="3.04054" ry="3.04412" fill="#F5E6F1"/>
<ellipse cx="36.9865" cy="94.3676" rx="3.04054" ry="3.04412" fill="#F5E6F1"/>
<ellipse cx="55.2297" cy="94.3676" rx="3.04054" ry="3.04412" fill="#F5E6F1"/>
<ellipse cx="73.473" cy="94.3676" rx="3.04054" ry="3.04412" fill="#F5E6F1"/>
<ellipse cx="91.7162" cy="94.3676" rx="3.04054" ry="3.04412" fill="#F5E6F1"/>
<ellipse cx="109.959" cy="94.3676" rx="3.04054" ry="3.04412" fill="#F5E6F1"/>
<ellipse cx="18.7432" cy="112.632" rx="3.04054" ry="3.04412" fill="#F5E6F1"/>
<ellipse cx="36.9865" cy="112.632" rx="3.04054" ry="3.04412" fill="#F5E6F1"/>
<ellipse cx="55.2297" cy="112.632" rx="3.04054" ry="3.04412" fill="#F5E6F1"/>
<ellipse cx="73.473" cy="112.632" rx="3.04054" ry="3.04412" fill="#F5E6F1"/>
<ellipse cx="91.7162" cy="112.632" rx="3.04054" ry="3.04412" fill="#F5E6F1"/>
<ellipse cx="109.959" cy="112.632" rx="3.04054" ry="3.04412" fill="#F5E6F1"/>
<ellipse cx="18.7432" cy="130.897" rx="3.04054" ry="3.04412" fill="#F5E6F1"/>
<ellipse cx="36.9865" cy="130.897" rx="3.04054" ry="3.04412" fill="#F5E6F1"/>
<ellipse cx="55.2297" cy="130.897" rx="3.04054" ry="3.04412" fill="#F5E6F1"/>
<ellipse cx="73.473" cy="130.897" rx="3.04054" ry="3.04412" fill="#F5E6F1"/>
<ellipse cx="91.7162" cy="130.897" rx="3.04054" ry="3.04412" fill="#F5E6F1"/>
<ellipse cx="109.959" cy="130.897" rx="3.04054" ry="3.04412" fill="#F5E6F1"/>
<ellipse cx="18.7432" cy="149.162" rx="3.04054" ry="3.04412" fill="#F5E6F1"/>
<ellipse cx="36.9865" cy="149.162" rx="3.04054" ry="3.04412" fill="#F5E6F1"/>
<ellipse cx="55.2297" cy="149.162" rx="3.04054" ry="3.04412" fill="#F5E6F1"/>
<ellipse cx="73.473" cy="149.162" rx="3.04054" ry="3.04412" fill="#F5E6F1"/>
<ellipse cx="91.7162" cy="149.162" rx="3.04054" ry="3.04412" fill="#F5E6F1"/>
<ellipse cx="109.959" cy="149.162" rx="3.04054" ry="3.04412" fill="#F5E6F1"/>
<ellipse cx="18.7432" cy="167.426" rx="3.04054" ry="3.04412" fill="#F5E6F1"/>
<ellipse cx="36.9865" cy="167.426" rx="3.04054" ry="3.04412" fill="#F5E6F1"/>
<ellipse cx="55.2297" cy="167.426" rx="3.04054" ry="3.04412" fill="#F5E6F1"/>
<ellipse cx="73.473" cy="167.426" rx="3.04054" ry="3.04412" fill="#F5E6F1"/>
<ellipse cx="91.7162" cy="167.426" rx="3.04054" ry="3.04412" fill="#F5E6F1"/>
<ellipse cx="109.959" cy="167.426" rx="3.04054" ry="3.04412" fill="#F5E6F1"/>
<ellipse cx="18.7432" cy="185.691" rx="3.04054" ry="3.04412" fill="#F5E6F1"/>
<ellipse cx="36.9865" cy="185.691" rx="3.04054" ry="3.04412" fill="#F5E6F1"/>
<ellipse cx="55.2297" cy="185.691" rx="3.04054" ry="3.04412" fill="#F5E6F1"/>
<ellipse cx="73.473" cy="185.691" rx="3.04054" ry="3.04412" fill="#F5E6F1"/>
<ellipse cx="91.7162" cy="185.691" rx="3.04054" ry="3.04412" fill="#F5E6F1"/>
<ellipse cx="109.959" cy="185.691" rx="3.04054" ry="3.04412" fill="#F5E6F1"/>
<ellipse cx="18.7432" cy="203.956" rx="3.04054" ry="3.04412" fill="#F5E6F1"/>
<ellipse cx="36.9865" cy="203.956" rx="3.04054" ry="3.04412" fill="#F5E6F1"/>
<ellipse cx="55.2297" cy="203.956" rx="3.04054" ry="3.04412" fill="#F5E6F1"/>
<ellipse cx="73.473" cy="203.956" rx="3.04054" ry="3.04412" fill="#F5E6F1"/>
<ellipse cx="91.7162" cy="203.956" rx="3.04054" ry="3.04412" fill="#F5E6F1"/>
<ellipse cx="109.959" cy="203.956" rx="3.04054" ry="3.04412" fill="#F5E6F1"/>
<ellipse cx="1296.04" cy="173.044" rx="3.04054" ry="3.04412" fill="#F5E6F1"/>
<ellipse cx="1296.04" cy="191.309" rx="3.04054" ry="3.04412" fill="#F5E6F1"/>
<ellipse cx="1296.04" cy="209.574" rx="3.04054" ry="3.04412" fill="#F5E6F1"/>
<ellipse cx="1296.04" cy="227.838" rx="3.04054" ry="3.04412" fill="#F5E6F1"/>
<ellipse cx="1296.04" cy="246.103" rx="3.04054" ry="3.04412" fill="#F5E6F1"/>
<ellipse cx="1296.04" cy="264.368" rx="3.04054" ry="3.04412" fill="#F5E6F1"/>
<ellipse cx="1296.04" cy="282.632" rx="3.04054" ry="3.04412" fill="#F5E6F1"/>
<ellipse cx="1296.04" cy="300.897" rx="3.04054" ry="3.04412" fill="#F5E6F1"/>
<ellipse cx="1296.04" cy="319.162" rx="3.04054" ry="3.04412" fill="#F5E6F1"/>
<ellipse cx="1296.04" cy="337.426" rx="3.04054" ry="3.04412" fill="#F5E6F1"/>
<ellipse cx="1296.04" cy="355.691" rx="3.04054" ry="3.04412" fill="#F5E6F1"/>
<ellipse cx="1296.04" cy="373.956" rx="3.04054" ry="3.04412" fill="#F5E6F1"/>
<ellipse cx="1314.28" cy="173.044" rx="3.04054" ry="3.04412" fill="#F5E6F1"/>
<ellipse cx="1314.28" cy="191.309" rx="3.04054" ry="3.04412" fill="#F5E6F1"/>
<ellipse cx="1314.28" cy="209.574" rx="3.04054" ry="3.04412" fill="#F5E6F1"/>
<ellipse cx="1314.28" cy="227.838" rx="3.04054" ry="3.04412" fill="#F5E6F1"/>
<ellipse cx="1314.28" cy="246.103" rx="3.04054" ry="3.04412" fill="#F5E6F1"/>
<ellipse cx="1314.28" cy="264.368" rx="3.04054" ry="3.04412" fill="#F5E6F1"/>
<ellipse cx="1314.28" cy="282.632" rx="3.04054" ry="3.04412" fill="#F5E6F1"/>
<ellipse cx="1314.28" cy="300.897" rx="3.04054" ry="3.04412" fill="#F5E6F1"/>
<ellipse cx="1314.28" cy="319.162" rx="3.04054" ry="3.04412" fill="#F5E6F1"/>
<ellipse cx="1314.28" cy="337.426" rx="3.04054" ry="3.04412" fill="#F5E6F1"/>
<ellipse cx="1314.28" cy="355.691" rx="3.04054" ry="3.04412" fill="#F5E6F1"/>
<ellipse cx="1314.28" cy="373.956" rx="3.04054" ry="3.04412" fill="#F5E6F1"/>
<ellipse cx="1332.53" cy="173.044" rx="3.04054" ry="3.04412" fill="#F5E6F1"/>
<ellipse cx="1332.53" cy="191.309" rx="3.04054" ry="3.04412" fill="#F5E6F1"/>
<ellipse cx="1332.53" cy="209.574" rx="3.04054" ry="3.04412" fill="#F5E6F1"/>
<ellipse cx="1332.53" cy="227.838" rx="3.04054" ry="3.04412" fill="#F5E6F1"/>
<ellipse cx="1332.53" cy="246.103" rx="3.04054" ry="3.04412" fill="#F5E6F1"/>
<ellipse cx="1332.53" cy="264.368" rx="3.04054" ry="3.04412" fill="#F5E6F1"/>
<ellipse cx="1332.53" cy="282.632" rx="3.04054" ry="3.04412" fill="#F5E6F1"/>
<ellipse cx="1332.53" cy="300.897" rx="3.04054" ry="3.04412" fill="#F5E6F1"/>
<ellipse cx="1332.53" cy="319.162" rx="3.04054" ry="3.04412" fill="#F5E6F1"/>
<ellipse cx="1332.53" cy="337.426" rx="3.04054" ry="3.04412" fill="#F5E6F1"/>
<ellipse cx="1332.53" cy="355.691" rx="3.04054" ry="3.04412" fill="#F5E6F1"/>
<ellipse cx="1332.53" cy="373.956" rx="3.04054" ry="3.04412" fill="#F5E6F1"/>
<ellipse cx="1350.77" cy="173.044" rx="3.04054" ry="3.04412" fill="#F5E6F1"/>
<ellipse cx="1350.77" cy="191.309" rx="3.04054" ry="3.04412" fill="#F5E6F1"/>
<ellipse cx="1350.77" cy="209.574" rx="3.04054" ry="3.04412" fill="#F5E6F1"/>
<ellipse cx="1350.77" cy="227.838" rx="3.04054" ry="3.04412" fill="#F5E6F1"/>
<ellipse cx="1350.77" cy="246.103" rx="3.04054" ry="3.04412" fill="#F5E6F1"/>
<ellipse cx="1350.77" cy="264.368" rx="3.04054" ry="3.04412" fill="#F5E6F1"/>
<ellipse cx="1350.77" cy="282.632" rx="3.04054" ry="3.04412" fill="#F5E6F1"/>
<ellipse cx="1350.77" cy="300.897" rx="3.04054" ry="3.04412" fill="#F5E6F1"/>
<ellipse cx="1350.77" cy="319.162" rx="3.04054" ry="3.04412" fill="#F5E6F1"/>
<ellipse cx="1350.77" cy="337.426" rx="3.04054" ry="3.04412" fill="#F5E6F1"/>
<ellipse cx="1350.77" cy="355.691" rx="3.04054" ry="3.04412" fill="#F5E6F1"/>
<ellipse cx="1350.77" cy="373.956" rx="3.04054" ry="3.04412" fill="#F5E6F1"/>
<ellipse cx="1369.01" cy="173.044" rx="3.04054" ry="3.04412" fill="#F5E6F1"/>
<ellipse cx="1369.01" cy="191.309" rx="3.04054" ry="3.04412" fill="#F5E6F1"/>
<ellipse cx="1369.01" cy="209.574" rx="3.04054" ry="3.04412" fill="#F5E6F1"/>
<ellipse cx="1369.01" cy="227.838" rx="3.04054" ry="3.04412" fill="#F5E6F1"/>
<ellipse cx="1369.01" cy="246.103" rx="3.04054" ry="3.04412" fill="#F5E6F1"/>
<ellipse cx="1369.01" cy="264.368" rx="3.04054" ry="3.04412" fill="#F5E6F1"/>
<ellipse cx="1369.01" cy="282.632" rx="3.04054" ry="3.04412" fill="#F5E6F1"/>
<ellipse cx="1369.01" cy="300.897" rx="3.04054" ry="3.04412" fill="#F5E6F1"/>
<ellipse cx="1369.01" cy="319.162" rx="3.04054" ry="3.04412" fill="#F5E6F1"/>
<ellipse cx="1369.01" cy="337.426" rx="3.04054" ry="3.04412" fill="#F5E6F1"/>
<ellipse cx="1369.01" cy="355.691" rx="3.04054" ry="3.04412" fill="#F5E6F1"/>
<ellipse cx="1369.01" cy="373.956" rx="3.04054" ry="3.04412" fill="#F5E6F1"/>
<ellipse cx="1387.26" cy="173.044" rx="3.04054" ry="3.04412" fill="#F5E6F1"/>
<ellipse cx="1387.26" cy="191.309" rx="3.04054" ry="3.04412" fill="#F5E6F1"/>
<ellipse cx="1387.26" cy="209.574" rx="3.04054" ry="3.04412" fill="#F5E6F1"/>
<ellipse cx="1387.26" cy="227.838" rx="3.04054" ry="3.04412" fill="#F5E6F1"/>
<ellipse cx="1387.26" cy="246.103" rx="3.04054" ry="3.04412" fill="#F5E6F1"/>
<ellipse cx="1387.26" cy="264.368" rx="3.04054" ry="3.04412" fill="#F5E6F1"/>
<ellipse cx="1387.26" cy="282.632" rx="3.04054" ry="3.04412" fill="#F5E6F1"/>
<ellipse cx="1387.26" cy="300.897" rx="3.04054" ry="3.04412" fill="#F5E6F1"/>
<ellipse cx="1387.26" cy="319.162" rx="3.04054" ry="3.04412" fill="#F5E6F1"/>
<ellipse cx="1387.26" cy="337.426" rx="3.04054" ry="3.04412" fill="#F5E6F1"/>
<ellipse cx="1387.26" cy="355.691" rx="3.04054" ry="3.04412" fill="#F5E6F1"/>
<ellipse cx="1387.26" cy="373.956" rx="3.04054" ry="3.04412" fill="#F5E6F1"/>
<ellipse cx="1405.5" cy="173.044" rx="3.04054" ry="3.04412" fill="#F5E6F1"/>
<ellipse cx="1405.5" cy="191.309" rx="3.04054" ry="3.04412" fill="#F5E6F1"/>
<ellipse cx="1405.5" cy="209.574" rx="3.04054" ry="3.04412" fill="#F5E6F1"/>
<ellipse cx="1405.5" cy="227.838" rx="3.04054" ry="3.04412" fill="#F5E6F1"/>
<ellipse cx="1405.5" cy="246.103" rx="3.04054" ry="3.04412" fill="#F5E6F1"/>
<ellipse cx="1405.5" cy="264.368" rx="3.04054" ry="3.04412" fill="#F5E6F1"/>
<ellipse cx="1405.5" cy="282.632" rx="3.04054" ry="3.04412" fill="#F5E6F1"/>
<ellipse cx="1405.5" cy="300.897" rx="3.04054" ry="3.04412" fill="#F5E6F1"/>
<ellipse cx="1405.5" cy="319.162" rx="3.04054" ry="3.04412" fill="#F5E6F1"/>
<ellipse cx="1405.5" cy="337.426" rx="3.04054" ry="3.04412" fill="#F5E6F1"/>
<ellipse cx="1405.5" cy="355.691" rx="3.04054" ry="3.04412" fill="#F5E6F1"/>
<ellipse cx="1405.5" cy="373.956" rx="3.04054" ry="3.04412" fill="#F5E6F1"/>
<ellipse cx="1423.74" cy="173.044" rx="3.04054" ry="3.04412" fill="#F5E6F1"/>
<ellipse cx="1441.99" cy="173.044" rx="3.04054" ry="3.04412" fill="#F5E6F1"/>
<ellipse cx="1423.74" cy="191.309" rx="3.04054" ry="3.04412" fill="#F5E6F1"/>
<ellipse cx="1441.99" cy="191.309" rx="3.04054" ry="3.04412" fill="#F5E6F1"/>
<ellipse cx="1423.74" cy="209.574" rx="3.04054" ry="3.04412" fill="#F5E6F1"/>
<ellipse cx="1441.99" cy="209.574" rx="3.04054" ry="3.04412" fill="#F5E6F1"/>
<ellipse cx="1423.74" cy="227.838" rx="3.04054" ry="3.04412" fill="#F5E6F1"/>
<ellipse cx="1441.99" cy="227.838" rx="3.04054" ry="3.04412" fill="#F5E6F1"/>
<ellipse cx="1423.74" cy="246.103" rx="3.04054" ry="3.04412" fill="#F5E6F1"/>
<ellipse cx="1441.99" cy="246.103" rx="3.04054" ry="3.04412" fill="#F5E6F1"/>
<ellipse cx="1423.74" cy="264.368" rx="3.04054" ry="3.04412" fill="#F5E6F1"/>
<ellipse cx="1441.99" cy="264.368" rx="3.04054" ry="3.04412" fill="#F5E6F1"/>
<ellipse cx="1423.74" cy="282.632" rx="3.04054" ry="3.04412" fill="#F5E6F1"/>
<ellipse cx="1441.99" cy="282.632" rx="3.04054" ry="3.04412" fill="#F5E6F1"/>
<ellipse cx="1423.74" cy="300.897" rx="3.04054" ry="3.04412" fill="#F5E6F1"/>
<ellipse cx="1441.99" cy="300.897" rx="3.04054" ry="3.04412" fill="#F5E6F1"/>
<ellipse cx="1423.74" cy="319.162" rx="3.04054" ry="3.04412" fill="#F5E6F1"/>
<ellipse cx="1441.99" cy="319.162" rx="3.04054" ry="3.04412" fill="#F5E6F1"/>
<ellipse cx="1423.74" cy="337.426" rx="3.04054" ry="3.04412" fill="#F5E6F1"/>
<ellipse cx="1441.99" cy="337.426" rx="3.04054" ry="3.04412" fill="#F5E6F1"/>
<ellipse cx="1423.74" cy="355.691" rx="3.04054" ry="3.04412" fill="#F5E6F1"/>
<ellipse cx="1441.99" cy="355.691" rx="3.04054" ry="3.04412" fill="#F5E6F1"/>
<ellipse cx="1423.74" cy="373.956" rx="3.04054" ry="3.04412" fill="#F5E6F1"/>
<ellipse cx="1441.99" cy="373.956" rx="3.04054" ry="3.04412" fill="#F5E6F1"/>
</svg>
