<svg width="1440" height="1352" viewBox="0 0 1440 1352" fill="none" xmlns="http://www.w3.org/2000/svg">
<g opacity="0.09">
<line y1="856.37" x2="1435" y2="856.37" stroke="#827780" stroke-width="1.2607"/>
<line y1="534.37" x2="1435" y2="534.37" stroke="#827780" stroke-width="1.2607"/>
<line y1="211.37" x2="1435" y2="211.37" stroke="#827780" stroke-width="1.2607"/>
<line y1="695.37" x2="1435" y2="695.37" stroke="#827780" stroke-width="1.2607"/>
<line y1="1018.37" x2="1435" y2="1018.37" stroke="#827780" stroke-width="1.2607"/>
<line y1="372.37" x2="1435" y2="372.37" stroke="#827780" stroke-width="1.2607"/>
<line y1="776.37" x2="1435" y2="776.37" stroke="#827780" stroke-width="1.2607"/>
<line y1="453.37" x2="1435" y2="453.37" stroke="#827780" stroke-width="1.2607"/>
<line y1="614.37" x2="1435" y2="614.37" stroke="#827780" stroke-width="1.2607"/>
<line y1="937.37" x2="1435" y2="937.37" stroke="#827780" stroke-width="1.2607"/>
<line y1="292.37" x2="1435" y2="292.37" stroke="#827780" stroke-width="1.2607"/>
<line x1="47.6303" y1="184" x2="47.6303" y2="1046" stroke="#827780" stroke-width="1.2607"/>
<line x1="692.63" y1="184" x2="692.63" y2="1046" stroke="#827780" stroke-width="1.2607"/>
<line x1="370.63" y1="184" x2="370.63" y2="1046" stroke="#827780" stroke-width="1.2607"/>
<line x1="1015.63" y1="184" x2="1015.63" y2="1046" stroke="#827780" stroke-width="1.2607"/>
<line x1="1338.63" y1="184" x2="1338.63" y2="1046" stroke="#827780" stroke-width="1.2607"/>
<line x1="208.63" y1="184" x2="208.63" y2="1046" stroke="#827780" stroke-width="1.2607"/>
<line x1="854.63" y1="184" x2="854.63" y2="1046" stroke="#827780" stroke-width="1.2607"/>
<line x1="531.63" y1="184" x2="531.63" y2="1046" stroke="#827780" stroke-width="1.2607"/>
<line x1="1177.63" y1="184" x2="1177.63" y2="1046" stroke="#827780" stroke-width="1.2607"/>
<line x1="128.63" y1="184" x2="128.63" y2="1046" stroke="#827780" stroke-width="1.2607"/>
<line x1="773.63" y1="184" x2="773.63" y2="1046" stroke="#827780" stroke-width="1.2607"/>
<line x1="450.63" y1="184" x2="450.63" y2="1046" stroke="#827780" stroke-width="1.2607"/>
<line x1="1096.63" y1="184" x2="1096.63" y2="1046" stroke="#827780" stroke-width="1.2607"/>
<line x1="1419.63" y1="184" x2="1419.63" y2="1046" stroke="#827780" stroke-width="1.2607"/>
<line x1="289.63" y1="184" x2="289.63" y2="1046" stroke="#827780" stroke-width="1.2607"/>
<line x1="935.63" y1="184" x2="935.63" y2="1046" stroke="#827780" stroke-width="1.2607"/>
<line x1="612.63" y1="184" x2="612.63" y2="1046" stroke="#827780" stroke-width="1.2607"/>
<line x1="1257.63" y1="184" x2="1257.63" y2="1046" stroke="#827780" stroke-width="1.2607"/>
</g>
<rect x="1337.2" y="451.891" width="79.201" height="79.3766" transform="rotate(-179.627 1337.2 451.891)" fill="#D4CDE3"/>
<rect x="126.998" y="936.52" width="80" height="80" transform="rotate(-179.627 126.998 936.52)" fill="#D4CDE3"/>
<rect x="1337.32" y="371.345" width="79.6505" height="78.2962" transform="rotate(-179.627 1337.32 371.345)" fill="#F5E6F1"/>
<rect x="127.681" y="855.379" width="80.141" height="79.1778" transform="rotate(-179.627 127.681 855.379)" fill="#F5E6F1"/>
<rect x="1418.52" y="372.525" width="80" height="80" transform="rotate(-179.627 1418.52 372.525)" fill="#D4CDE3"/>
<rect x="208.009" y="855.856" width="79.2197" height="80" transform="rotate(-179.627 208.009 855.856)" fill="#D4CDE3"/>
<rect x="209" y="292" width="80" height="80" fill="#D4CDE3"/>
<rect x="128" y="372" width="80" height="80" fill="#D4CDE3"/>
<rect x="1419" y="936.52" width="80" height="80" transform="rotate(-179.627 1419 936.52)" fill="#D4CDE3"/>
<rect x="1338.01" y="855.153" width="80" height="78.6329" transform="rotate(-179.627 1338.01 855.153)" fill="#F5E6F1"/>
</svg>
